<svg width="225" height="252" viewBox="0 0 225 252" fill="none" xmlns="http://www.w3.org/2000/svg">
<mask id="mask0_71_295" style="mask-type:luminance" maskUnits="userSpaceOnUse" x="0" y="0" width="225" height="252">
<path d="M224.94 0H0V251.281H224.94V0Z" fill="white"/>
</mask>
<g mask="url(#mask0_71_295)">
<path d="M147.257 235.271C147.257 243.547 129.527 250.252 107.658 250.252C86.4815 250.252 69.1898 243.963 68.1122 236.053C67.9586 235.565 67.8804 235.056 67.8802 234.544V177.481C67.8802 166.96 72.0596 156.87 79.499 149.431C86.9384 141.991 97.0283 137.812 107.549 137.812C118.07 137.812 128.16 141.991 135.599 149.431C143.039 156.87 147.218 166.96 147.218 177.481V234.546C147.218 234.561 147.214 234.571 147.214 234.586C147.244 234.813 147.259 235.042 147.26 235.271" fill="#BE3455"/>
<path d="M107.658 251.281C85.7774 251.281 68.3819 244.838 67.1072 236.279C66.9395 235.717 66.8542 235.133 66.854 234.547V177.481C66.854 166.688 71.1415 156.337 78.7733 148.705C86.4051 141.073 96.756 136.786 107.549 136.786C118.342 136.786 128.693 141.073 136.325 148.705C143.957 156.337 148.244 166.688 148.244 177.481V234.557C148.27 234.794 148.283 235.032 148.283 235.27C148.283 244.247 130.438 251.28 107.658 251.28M107.547 138.835C102.472 138.832 97.4453 139.83 92.7556 141.771C88.0659 143.712 83.8048 146.559 80.216 150.148C76.6273 153.737 73.7812 157.998 71.8406 162.688C69.8999 167.378 68.9028 172.404 68.9063 177.48V234.547C68.9065 234.955 68.9689 235.36 69.0913 235.749L69.1287 235.917C70.1287 243.257 87.4127 249.229 107.658 249.229C128.567 249.229 146.231 242.838 146.231 235.272C146.231 235.085 146.219 234.899 146.196 234.714L146.188 234.512L146.192 234.485V177.481C146.19 167.232 142.118 157.404 134.871 150.157C127.624 142.91 117.796 138.838 107.547 138.836M148.234 234.698L148.231 234.715C148.231 234.71 148.231 234.704 148.234 234.698ZM146.201 234.418C146.201 234.423 146.201 234.429 146.199 234.435L146.201 234.418Z" fill="#2A1B3D"/>
<path d="M139.713 180.247H75.3479V215.566H139.713V180.247Z" fill="white"/>
<path d="M141.044 216.592H74.017V179.221H141.044V216.592ZM76.6789 214.54H138.382V181.274H76.6789V214.54Z" fill="#2A1B3D"/>
<path d="M14.6397 57.7333L8.30176 58.7669L14.503 96.7936L20.8409 95.7601L14.6397 57.7333Z" fill="#BE3455"/>
<path d="M13.655 97.9715L7.12415 57.919L15.4875 56.5554L22.0184 96.6078L13.655 97.9715ZM9.47964 59.6157L15.3503 95.6169L19.6629 94.9139L13.7922 58.9127L9.47964 59.6157Z" fill="#2A1B3D"/>
<path d="M23.0979 87.44L10.0702 89.5645L13.4579 110.338L26.4856 108.214L23.0979 87.44Z" fill="#BE3455"/>
<path d="M12.6104 111.516L8.89307 88.7147L23.9457 86.2599L27.6635 109.059L12.6104 111.516ZM11.2481 90.4118L14.3044 109.16L25.3071 107.366L22.2508 88.6177L11.2481 90.4118Z" fill="#2A1B3D"/>
<path d="M33.3153 75.8338L17.8229 78.36L24.1382 117.091L39.6306 114.565L33.3153 75.8338Z" fill="#2A1B3D"/>
<path d="M168.507 32.6429L162.169 33.6764L168.37 71.7031L174.708 70.6696L168.507 32.6429Z" fill="#BE3455"/>
<path d="M167.523 72.8809L160.991 32.8284L169.355 31.4648L175.886 71.5172L167.523 72.8809ZM163.347 34.5251L169.217 70.5249L173.529 69.8219L167.659 33.8207L163.347 34.5251Z" fill="#2A1B3D"/>
<path d="M176.614 62.4068L163.586 64.5312L166.974 85.3051L180.001 83.1806L176.614 62.4068Z" fill="#BE3455"/>
<path d="M166.125 86.4828L162.408 63.6832L177.461 61.2285L181.179 84.028L166.125 86.4828ZM164.764 65.3785L167.821 84.1269L178.823 82.3327L175.766 63.5844L164.764 65.3785Z" fill="#2A1B3D"/>
<path d="M165.705 54.2448L150.212 56.772L156.53 95.5044L172.023 92.9771L165.705 54.2448Z" fill="#2A1B3D"/>
<path d="M105.272 27.2311L68.302 33.2594L70.5411 46.9913L107.512 40.963L105.272 27.2311Z" fill="#2A1B3D"/>
<path d="M90.8576 35.1302C90.7285 34.5215 87.7603 20.139 93.5452 13.3275C94.9552 11.6507 96.899 10.5098 99.0504 10.0961C100.088 7.9405 102.251 5.60666 106.455 3.51876C109.465 2.02815 112.924 1.71999 116.15 2.65507C116.459 2.41922 116.79 2.18127 117.143 1.9412L117.241 1.88299C117.359 1.82117 129.108 -4.1894 136.633 5.59313L135.008 6.84443C132.298 3.3175 128.659 1.71197 124.199 2.07568C122.229 2.24725 120.301 2.74753 118.497 3.55576C118.942 3.77609 119.374 4.02416 119.788 4.29851C122.038 5.79574 123.258 7.74872 123.135 9.65658C123.058 10.8429 122.421 12.5265 119.821 13.808C117.666 14.8721 114.316 13.6104 112.922 11.2143C112.275 10.1006 111.372 7.50686 114.272 4.34769C111.921 3.95504 109.506 4.30752 107.365 5.35577C104.708 6.67476 102.759 8.20267 101.574 9.8452C101.829 9.8452 102.083 9.85017 102.341 9.86235C105.152 9.99276 110.533 13.804 111.085 17.4762C111.269 18.704 111.051 20.9539 107.52 22.221C104.601 23.2675 100.472 20.7771 98.86 16.9934C98.2543 15.5502 98.0633 13.9667 98.3085 12.4209C97.06 12.8654 95.9535 13.6367 95.1047 14.6546C89.97 20.7076 92.8359 34.5653 92.8661 34.7047L90.8576 35.1302ZM100.499 11.9498C100.063 13.3471 100.152 14.8558 100.752 16.1915C102.002 19.1246 105.141 20.8984 106.83 20.292C109.301 19.4053 109.118 18.1847 109.057 17.7835C108.671 15.2114 104.274 12.0076 102.249 11.9151C101.666 11.8861 101.081 11.8981 100.499 11.9512M116.584 4.96138C114.504 6.81916 113.816 8.66881 114.697 10.1863C115.596 11.7337 117.834 12.5026 118.914 11.9706C119.864 11.5017 121.012 10.6972 121.088 9.52572C121.16 8.40393 120.227 7.05651 118.651 6.00602C118.003 5.58029 117.31 5.2291 116.583 4.95913" fill="#2A1B3D"/>
<path d="M82.5443 37.8911C82.2654 33.8322 81.216 29.8635 79.4524 26.1971C75.5907 18.2078 68.9795 13.3037 59.803 11.6219L60.1734 9.60352C72.4875 11.8597 78.4782 19.428 81.3368 25.3781C83.2193 29.2825 84.3267 33.515 84.5975 37.841L82.5443 37.8911Z" fill="#2A1B3D"/>
<path d="M135.752 149.588L71.6368 160.61C74.3531 154.83 78.4248 149.791 83.5057 145.921C88.5866 142.052 94.5266 139.466 100.821 138.384C107.115 137.302 113.578 137.756 119.659 139.706C125.74 141.657 131.261 145.046 135.752 149.588Z" fill="#2A1B3D"/>
<path d="M152.943 38.0549L167.13 125.058C167.563 127.715 166.922 130.434 165.351 132.619C163.779 134.804 161.404 136.275 158.748 136.709L50.6167 154.341C47.96 154.775 45.2402 154.135 43.0553 152.562C40.8704 150.99 39.3995 148.614 38.9661 145.958L24.7785 58.9542C24.3455 56.2976 24.9854 53.5777 26.5577 51.3928C28.1299 49.2079 30.5055 47.737 33.1622 47.3036L141.292 29.6712C143.949 29.2389 146.668 29.8792 148.853 31.4513C151.038 33.0233 152.509 35.3986 152.943 38.0549Z" fill="#BE3455"/>
<path d="M48.9602 155.502C46.312 155.495 43.7523 154.548 41.7368 152.831C39.7212 151.113 38.3805 148.736 37.9535 146.122L23.7663 59.1188C23.2934 56.194 23.9996 53.201 25.7302 50.7961C27.4607 48.3912 30.0743 46.7707 32.9979 46.2899L141.128 28.658C144.053 28.1852 147.045 28.8914 149.45 30.6219C151.855 32.3523 153.475 34.9657 153.956 37.8891L168.143 124.893C168.617 127.818 167.911 130.811 166.18 133.216C164.45 135.621 161.836 137.241 158.912 137.722L50.7824 155.354C50.1801 155.452 49.5705 155.502 48.9602 155.502ZM142.931 30.5636C142.438 30.5636 141.945 30.6036 141.458 30.6832L33.3278 48.3156C30.941 48.7078 28.8073 50.0307 27.3946 51.994C25.9819 53.9573 25.4056 56.4008 25.792 58.7885L39.9805 145.792C40.3703 148.18 41.6926 150.315 43.6565 151.729C45.6205 153.142 48.0653 153.717 50.4534 153.328L158.583 135.695C160.97 135.303 163.104 133.98 164.517 132.017C165.929 130.054 166.506 127.61 166.119 125.223L151.931 38.2203C151.579 36.0855 150.482 34.1445 148.835 32.7426C147.187 31.3408 145.095 30.5689 142.931 30.5645" fill="#2A1B3D"/>
<path d="M34.5881 47.0707L52.0423 154.109L50.6163 154.341C47.9597 154.774 45.2402 154.133 43.0555 152.561C40.8708 150.989 39.3997 148.614 38.9656 145.958L24.7785 58.9542C24.3461 56.2975 24.9863 53.5779 26.5584 51.3931C28.1305 49.2083 30.5058 47.7372 33.1622 47.3031L34.5881 47.0707Z" fill="white"/>
<path d="M48.9602 155.503C46.312 155.495 43.7523 154.549 41.7368 152.831C39.7212 151.113 38.3805 148.736 37.9535 146.122L23.7663 59.1189C23.2934 56.1941 23.9996 53.2011 25.7302 50.7962C27.4607 48.3913 30.0743 46.7708 32.9979 46.2901L35.4346 45.8925L53.2191 154.958L50.7824 155.356C50.1801 155.454 49.5709 155.504 48.9607 155.504M33.7411 48.2485L33.3278 48.3157C30.941 48.708 28.8073 50.0308 27.3946 51.9942C25.9819 53.9575 25.4056 56.401 25.792 58.7886L39.9805 145.792C40.3703 148.18 41.6926 150.315 43.6565 151.729C45.6205 153.142 48.0653 153.717 50.4534 153.328L50.8667 153.261L33.7411 48.2485Z" fill="#2A1B3D"/>
<path d="M152.943 38.0549L167.13 125.058C167.563 127.715 166.923 130.434 165.351 132.619C163.779 134.804 161.404 136.275 158.748 136.709L157.322 136.942L139.866 29.9036L141.292 29.6712C143.949 29.2389 146.668 29.8792 148.853 31.4513C151.038 33.0233 152.509 35.3986 152.943 38.0549Z" fill="white"/>
<path d="M156.473 138.12L138.688 29.0556L141.127 28.6581C144.052 28.1844 147.046 28.8904 149.451 30.6211C151.856 32.3517 153.476 34.9658 153.956 37.8897L168.143 124.893C168.616 127.818 167.91 130.811 166.179 133.216C164.449 135.621 161.835 137.241 158.911 137.722L156.473 138.12ZM141.044 30.751L158.168 135.764L158.582 135.696C160.968 135.304 163.102 133.981 164.515 132.018C165.928 130.055 166.504 127.611 166.117 125.224L151.93 38.2204C151.539 35.8334 150.216 33.6993 148.252 32.2865C146.289 30.8737 143.845 30.2976 141.457 30.6846L141.044 30.751Z" fill="#2A1B3D"/>
<path d="M33.5194 59.354C33.6043 59.8763 33.5325 60.412 33.313 60.8934C33.0935 61.3749 32.7362 61.7804 32.2862 62.0588C31.8363 62.3371 31.3139 62.4758 30.7851 62.4573C30.2563 62.4388 29.7449 62.2639 29.3155 61.9548C28.8861 61.6456 28.558 61.2161 28.3727 60.7205C28.1874 60.2249 28.1532 59.6855 28.2744 59.1705C28.3957 58.6554 28.6669 58.1879 29.0538 57.827C29.4408 57.4661 29.926 57.2281 30.4482 57.1429C30.7951 57.0864 31.1497 57.0988 31.4917 57.1793C31.8338 57.2598 32.1567 57.4069 32.4419 57.6123C32.7271 57.8176 32.969 58.0771 33.1539 58.376C33.3388 58.6748 33.463 59.0072 33.5194 59.354Z" fill="#2A1B3D"/>
<path d="M150.064 40.3493C150.149 40.8716 150.077 41.4073 149.857 41.8887C149.638 42.3702 149.281 42.7757 148.831 43.0541C148.381 43.3324 147.858 43.4711 147.329 43.4526C146.801 43.4341 146.289 43.2592 145.86 42.9501C145.43 42.6409 145.102 42.2114 144.917 41.7158C144.732 41.2202 144.698 40.6808 144.819 40.1658C144.94 39.6507 145.211 39.1832 145.598 38.8223C145.985 38.4614 146.47 38.2234 146.993 38.1382C147.339 38.0817 147.694 38.0941 148.036 38.1746C148.378 38.2551 148.701 38.4022 148.986 38.6076C149.271 38.8129 149.513 39.0724 149.698 39.3713C149.883 39.6701 150.007 40.0025 150.064 40.3493Z" fill="#2A1B3D"/>
<path d="M47.1837 143.154C47.2687 143.676 47.1968 144.212 46.9773 144.693C46.7578 145.175 46.4005 145.58 45.9505 145.859C45.5006 146.137 44.9782 146.276 44.4494 146.257C43.9206 146.239 43.4092 146.064 42.9798 145.755C42.5504 145.445 42.2223 145.016 42.037 144.52C41.8517 144.025 41.8175 143.485 41.9387 142.97C42.06 142.455 42.3312 141.988 42.7182 141.627C43.1051 141.266 43.5903 141.028 44.1125 140.943C44.4594 140.886 44.814 140.899 45.1561 140.979C45.4981 141.06 45.821 141.207 46.1062 141.412C46.3914 141.617 46.6333 141.877 46.8182 142.176C47.0031 142.475 47.1273 142.807 47.1837 143.154Z" fill="#2A1B3D"/>
<path d="M163.729 124.149C163.814 124.671 163.742 125.207 163.523 125.689C163.303 126.17 162.946 126.575 162.496 126.854C162.046 127.132 161.524 127.271 160.995 127.252C160.466 127.234 159.955 127.059 159.525 126.75C159.096 126.441 158.768 126.011 158.583 125.516C158.397 125.02 158.363 124.481 158.484 123.966C158.606 123.451 158.877 122.983 159.264 122.622C159.651 122.261 160.136 122.023 160.658 121.938C161.005 121.882 161.36 121.894 161.702 121.974C162.044 122.055 162.367 122.202 162.652 122.407C162.937 122.613 163.179 122.872 163.364 123.171C163.549 123.47 163.673 123.802 163.729 124.149Z" fill="#2A1B3D"/>
<path d="M75.8603 68.7756L69.4247 64.2825L61.6272 75.4522L50.6849 67.3384L46.0105 73.6431L57.1328 81.8905L49.2067 93.2438L55.6419 97.7369L63.4398 86.5672L74.3816 94.6806L79.0565 88.3763L67.9342 80.1293L75.8603 68.7756Z" fill="white"/>
<path d="M55.8963 99.1655L47.7784 93.4979L55.7203 82.1207L44.5746 73.8561L50.4714 65.9034L61.3916 73.9992L69.1719 62.8534L77.2898 68.5211L69.3479 79.8983L80.4936 88.1624L74.5954 96.1151L63.6753 88.0193L55.8963 99.1655ZM50.6357 92.9898L55.3887 96.3078L63.2033 85.1138L74.1686 93.2447L77.621 88.5893L66.5204 80.3595L74.4298 69.0296L69.6769 65.7116L61.8658 76.9056L50.9006 68.7742L47.4481 73.4297L58.5487 81.6599L50.6357 92.9898Z" fill="#2A1B3D"/>
<path d="M141.378 78.2133L130.256 69.9664L138.182 58.6131L131.747 54.12L123.949 65.2897L113.007 57.1759L108.332 63.4802L119.455 71.7276L111.528 83.0809L117.964 87.5739L125.762 76.4043L136.704 84.5177L141.378 78.2133Z" fill="white"/>
<path d="M118.218 89.0025L110.1 83.3349L118.041 71.9577L106.896 63.6931L112.793 55.7404L123.713 63.8362L131.493 52.6904L139.611 58.3581L131.67 69.7348L142.815 77.9994L136.917 85.953L125.996 77.8572L118.218 89.0025ZM112.957 82.8268L117.71 86.1448L125.525 74.9517L136.49 83.0831L139.943 78.4272L128.842 70.1974L136.752 58.868L132 55.5482L124.186 66.7422L113.221 58.6108L109.768 63.2667L120.869 71.4965L112.957 82.8268Z" fill="#2A1B3D"/>
<path d="M142.294 107.94L57.7866 121.725L58.2461 124.542L142.753 110.757L142.294 107.94Z" fill="#2A1B3D"/>
<path d="M154.356 28.9868C154.686 31.0063 155.606 32.8828 157.002 34.379C158.398 35.8752 160.206 36.9239 162.198 37.3925C164.19 37.8611 166.276 37.7285 168.192 37.0115C170.109 36.2946 171.77 35.0254 172.965 33.3645C174.16 31.7036 174.836 29.7256 174.907 27.6807C174.978 25.6357 174.441 23.6156 173.364 21.8759C172.286 20.1361 170.718 18.7548 168.855 17.9067C166.993 17.0585 164.922 16.7816 162.902 17.111C160.194 17.5526 157.772 19.0519 156.17 21.279C154.567 23.5062 153.915 26.2788 154.356 28.9868Z" fill="#2A1B3D"/>
<path d="M113.447 123.914L111.887 114.348L133.6 110.808L135.16 120.374C135.4 121.803 135.355 123.265 135.028 124.676C134.701 126.088 134.099 127.421 133.255 128.599C132.412 129.777 131.344 130.776 130.113 131.54C128.882 132.305 127.512 132.818 126.082 133.051C124.652 133.284 123.19 133.233 121.78 132.899C120.37 132.566 119.04 131.957 117.866 131.108C116.692 130.259 115.697 129.187 114.939 127.952C114.181 126.718 113.674 125.345 113.447 123.914Z" fill="#F582AE"/>
<path d="M124.278 134.173C121.428 134.165 118.674 133.147 116.505 131.298C114.336 129.45 112.894 126.892 112.434 124.08L110.71 113.502L134.448 109.63L136.173 120.209C136.427 121.768 136.372 123.361 136.01 124.898C135.648 126.436 134.988 127.887 134.065 129.169C133.143 130.451 131.977 131.538 130.634 132.369C129.291 133.201 127.798 133.759 126.239 134.013C125.591 134.119 124.935 134.173 124.278 134.173ZM114.46 123.749C114.671 125.042 115.134 126.28 115.824 127.394C116.513 128.507 117.415 129.474 118.478 130.239C119.541 131.004 120.745 131.552 122.02 131.852C123.295 132.152 124.616 132.198 125.909 131.988C127.201 131.777 128.44 131.313 129.554 130.624C130.667 129.935 131.634 129.033 132.399 127.969C133.164 126.906 133.712 125.703 134.012 124.428C134.312 123.153 134.358 121.831 134.147 120.539L132.753 111.986L113.066 115.196L114.46 123.749Z" fill="#2A1B3D"/>
<path d="M20.5583 50.8043C20.8877 52.8238 20.6107 54.8957 19.7626 56.7578C18.9144 58.6199 17.5332 60.1887 15.7934 61.2658C14.0536 62.3429 12.0336 62.8799 9.98861 62.8089C7.94365 62.738 5.96567 62.0622 4.30479 60.867C2.64391 59.6719 1.37473 58.0111 0.657747 56.0946C-0.0592364 54.1781 -0.191821 52.0921 0.276759 50.1003C0.745339 48.1085 1.79404 46.3004 3.29024 44.9046C4.78645 43.5088 6.66295 42.588 8.68246 42.2587C11.3905 41.8171 14.1631 42.4693 16.3902 44.0719C18.6174 45.6746 20.1167 48.0963 20.5583 50.8043Z" fill="#2A1B3D"/>
<path d="M123.531 112.446L121.42 112.798L123.37 124.497L125.481 124.145L123.531 112.446Z" fill="#2A1B3D"/>
<path d="M211.614 233.506C209.375 233.553 207.161 233.023 205.185 231.968C204.212 231.401 203.298 230.741 202.453 229.997C199.881 231.579 196.929 232.527 194.221 232.22C192.623 232.067 191.08 231.553 189.709 230.718C187.77 231.98 185.513 232.666 183.2 232.695C180.886 232.724 178.612 232.095 176.643 230.882C170.762 233.376 165.969 233.551 162.392 231.402C157.136 228.243 156.602 221.301 156.581 221.007L158.629 220.865C158.633 220.927 159.121 227.051 163.461 229.649C166.258 231.326 170.1 231.233 174.89 229.378C173.659 228.128 172.802 226.559 172.414 224.849C172.026 223.138 172.123 221.353 172.693 219.694C173.603 217.167 175.513 215.575 177.556 215.637C181.442 215.757 182.494 218.173 182.776 219.602C183.452 223.029 181.248 227.556 178.69 229.696C180.845 230.697 183.281 230.919 185.581 230.322C186.44 230.101 187.265 229.768 188.036 229.33C187.067 228.264 186.372 226.979 186.01 225.584C184.975 221.796 186.104 217.086 188.474 215.298C189.764 214.325 192.514 214.273 194.398 215.754C195.607 216.705 197.331 219.007 195.281 223.736C194.41 225.852 193.108 227.763 191.458 229.348C192.401 229.797 193.415 230.078 194.455 230.181C196.528 230.416 198.881 229.687 201 228.461C198.572 225.381 198.771 222.14 200.112 219.733C201.705 216.875 204.682 215.315 206.61 216.325C208.985 217.569 209.886 219.782 209.083 222.396C208.406 224.597 206.564 226.941 204.19 228.793C204.835 229.313 205.518 229.783 206.233 230.201C208.424 231.499 212.629 232.04 216.424 230.566C218.008 229.961 219.426 228.992 220.565 227.737C221.704 226.483 222.531 224.977 222.98 223.343L224.943 223.94C224.409 225.874 223.426 227.656 222.075 229.14C220.723 230.624 219.042 231.768 217.165 232.481C215.395 233.163 213.513 233.512 211.615 233.508M177.439 217.689C176.334 217.689 175.207 218.766 174.623 220.391C173.847 222.548 174.025 225.882 176.905 228.48C179.071 227.092 181.316 222.819 180.761 220.001C180.467 218.505 179.397 217.749 177.492 217.69H177.439M190.935 216.652C190.507 216.627 190.081 216.726 189.709 216.938C188.2 218.076 187.121 221.865 187.988 225.046C188.289 226.209 188.892 227.273 189.735 228.129C191.336 226.695 192.588 224.914 193.397 222.922C194.184 221.104 194.776 218.665 193.126 217.368C192.493 216.895 191.722 216.643 190.932 216.652M205.286 218.067C204.42 218.067 202.864 219.008 201.902 220.733C201.247 221.907 200.338 224.489 202.699 227.337C204.845 225.726 206.542 223.672 207.118 221.796C207.631 220.123 207.152 218.929 205.655 218.145C205.54 218.089 205.414 218.063 205.286 218.067Z" fill="#2A1B3D"/>
<path d="M28.4805 210.487V220.875C28.4805 224.317 34.0615 227.107 40.9456 227.107C47.8298 227.107 53.4108 224.317 53.4108 220.875V210.487H28.4805Z" fill="white"/>
<path d="M40.9457 228.134C33.3801 228.134 27.4535 224.945 27.4535 220.875V209.461H54.4379V220.875C54.4379 224.945 48.5122 228.134 40.9457 228.134ZM29.5062 211.514V220.875C29.5062 223.338 34.2041 226.082 40.9457 226.082C47.6873 226.082 52.3843 223.338 52.3843 220.875V211.514H29.5062Z" fill="#2A1B3D"/>
<path d="M54.5018 209.942C54.5018 213.687 48.4326 216.72 40.9455 216.72C33.4585 216.72 27.3901 213.685 27.3901 209.942C27.3901 206.198 33.4598 203.163 40.9469 203.163C48.4339 203.163 54.5032 206.198 54.5032 209.942" fill="#2A1B3D"/>
<path d="M47.1074 209.326C47.1074 211.027 44.3485 212.407 40.9452 212.407C37.5419 212.407 34.7834 211.027 34.7834 209.326C34.7834 207.624 37.5424 206.245 40.9452 206.245C44.348 206.245 47.1074 207.624 47.1074 209.326Z" fill="white"/>
<path d="M81.9084 200.824H87.3428L86.9863 202.678H79.2416L81.2379 192.695H88.7692L88.4122 194.549H83.1642L81.9084 200.824ZM82.5645 196.703H87.3712L87.0147 198.514H82.2081L82.5645 196.703Z" fill="#2A1B3D"/>
<path d="M88.8119 202.679L90.8086 192.695H94.8735C95.9015 192.63 96.9208 192.919 97.7614 193.515C98.097 193.785 98.3642 194.131 98.5414 194.523C98.7186 194.916 98.8008 195.345 98.7812 195.776C98.8016 196.547 98.5958 197.308 98.1892 197.965C97.7785 198.592 97.1937 199.085 96.5065 199.384C95.6943 199.734 94.816 199.904 93.9317 199.883H90.6796L91.8921 198.871L91.1363 202.679H88.8119ZM91.8352 199.141L91.0365 198.043H94.0174C94.6541 198.081 95.2841 197.897 95.8003 197.523C96.0169 197.339 96.1877 197.108 96.2991 196.846C96.4105 196.585 96.4594 196.302 96.442 196.018C96.4582 195.81 96.4223 195.602 96.3376 195.411C96.2529 195.221 96.1221 195.054 95.9569 194.927C95.5434 194.669 95.06 194.547 94.5738 194.577H91.7639L92.976 193.449L91.8352 199.141ZM95.2439 202.679L93.2043 199.056H95.6149L97.6829 202.679H95.2439Z" fill="#2A1B3D"/>
<path d="M99.2947 202.679L101.291 192.695H105.356C106.384 192.63 107.404 192.919 108.244 193.515C108.58 193.785 108.847 194.131 109.024 194.523C109.201 194.916 109.284 195.345 109.264 195.776C109.284 196.547 109.079 197.308 108.672 197.965C108.261 198.592 107.676 199.085 106.989 199.384C106.177 199.734 105.299 199.904 104.414 199.883H101.162L102.375 198.871L101.619 202.679H99.2947ZM102.318 199.141L101.519 198.043H104.5C105.137 198.081 105.767 197.897 106.283 197.523C106.5 197.339 106.671 197.108 106.782 196.846C106.893 196.585 106.942 196.302 106.925 196.018C106.941 195.81 106.905 195.602 106.82 195.411C106.736 195.221 106.605 195.054 106.44 194.927C106.026 194.669 105.543 194.547 105.057 194.577H102.247L103.459 193.449L102.318 199.141ZM105.727 202.679L103.687 199.056H106.098L108.166 202.679H105.727Z" fill="#2A1B3D"/>
<path d="M114.955 202.85C114.057 202.873 113.165 202.685 112.352 202.3C111.658 201.965 111.076 201.435 110.676 200.774C110.277 200.089 110.074 199.307 110.09 198.514C110.083 197.704 110.233 196.899 110.532 196.146C110.816 195.43 111.247 194.782 111.796 194.242C112.356 193.695 113.021 193.266 113.75 192.979C114.552 192.666 115.406 192.511 116.267 192.522C117.168 192.497 118.062 192.685 118.877 193.071C119.569 193.409 120.149 193.938 120.547 194.597C120.946 195.283 121.149 196.065 121.133 196.858C121.14 197.668 120.99 198.472 120.691 199.226C120.407 199.941 119.977 200.59 119.427 201.13C118.867 201.677 118.202 202.106 117.474 202.393C116.672 202.706 115.817 202.861 114.956 202.85M115.156 200.896C115.681 200.905 116.202 200.8 116.682 200.589C117.121 200.39 117.51 200.098 117.823 199.732C118.138 199.364 118.383 198.941 118.545 198.484C118.714 198.003 118.798 197.496 118.794 196.986C118.803 196.531 118.695 196.081 118.478 195.681C118.265 195.301 117.942 194.993 117.552 194.797C117.091 194.571 116.582 194.461 116.068 194.476C115.551 194.469 115.037 194.573 114.563 194.782C114.121 194.981 113.727 195.273 113.408 195.64C113.089 196.006 112.843 196.43 112.681 196.888C112.512 197.369 112.428 197.876 112.431 198.385C112.422 198.84 112.531 199.29 112.747 199.69C112.961 200.071 113.284 200.379 113.675 200.575C114.136 200.801 114.645 200.911 115.158 200.896" fill="#2A1B3D"/>
<path d="M121.816 202.679L123.812 192.695H127.877C128.905 192.63 129.924 192.919 130.765 193.515C131.101 193.785 131.368 194.131 131.545 194.523C131.722 194.916 131.804 195.345 131.785 195.776C131.805 196.547 131.599 197.308 131.193 197.965C130.782 198.592 130.197 199.085 129.51 199.384C128.698 199.734 127.82 199.904 126.935 199.883H123.683L124.896 198.871L124.14 202.679H121.816ZM124.839 199.141L124.04 198.043H127.021C127.658 198.081 128.288 197.897 128.804 197.523C129.021 197.339 129.191 197.108 129.303 196.846C129.414 196.585 129.463 196.302 129.446 196.018C129.462 195.81 129.426 195.602 129.341 195.411C129.257 195.221 129.126 195.054 128.961 194.927C128.547 194.669 128.064 194.547 127.577 194.577H124.769L125.981 193.449L124.839 199.141ZM128.248 202.679L126.208 199.056H128.619L130.687 202.679H128.248Z" fill="#2A1B3D"/>
<path d="M133.34 202.793C133.17 202.8 133 202.773 132.841 202.712C132.681 202.652 132.536 202.561 132.412 202.443C132.297 202.334 132.206 202.203 132.145 202.056C132.084 201.91 132.053 201.753 132.056 201.595C132.05 201.411 132.083 201.229 132.153 201.059C132.223 200.889 132.329 200.737 132.462 200.611C132.738 200.352 133.104 200.214 133.482 200.225C133.825 200.212 134.16 200.332 134.416 200.561C134.534 200.667 134.628 200.799 134.691 200.945C134.753 201.092 134.784 201.25 134.78 201.409C134.781 201.653 134.714 201.893 134.587 202.101C134.463 202.312 134.286 202.487 134.074 202.609C133.85 202.735 133.597 202.799 133.34 202.794M132.997 199.2L133.855 192.696H136.507L134.753 199.2H132.997Z" fill="#2A1B3D"/>
</g>
</svg>
