<svg width="210" height="195" viewBox="0 0 210 195" fill="none" xmlns="http://www.w3.org/2000/svg">
<mask id="mask0_73_629" style="mask-type:luminance" maskUnits="userSpaceOnUse" x="0" y="0" width="210" height="195">
<path d="M209.1 0.942764H0V194.322H209.1V0.942764Z" fill="white"/>
</mask>
<g mask="url(#mask0_73_629)">
<mask id="mask1_73_629" style="mask-type:luminance" maskUnits="userSpaceOnUse" x="0" y="0" width="210" height="195">
<path d="M209.101 0.942764H0V194.322H209.101V0.942764Z" fill="white"/>
</mask>
<g mask="url(#mask1_73_629)">
<g opacity="0.5">
<mask id="mask2_73_629" style="mask-type:luminance" maskUnits="userSpaceOnUse" x="167" y="96" width="39" height="29">
<path d="M205.33 96.8887H167.186V124.408H205.33V96.8887Z" fill="white"/>
</mask>
<g mask="url(#mask2_73_629)">
<path d="M180.042 121.061L167.77 102.84C166.283 100.237 167.77 96.8899 170.745 96.8899H201.611C202.302 96.8894 202.979 97.0814 203.567 97.4444C204.155 97.8074 204.629 98.327 204.938 98.9448C205.247 99.5626 205.378 100.254 205.315 100.942C205.253 101.63 205 102.287 204.585 102.839L192.313 121.06C189.71 125.522 183.016 125.522 180.041 121.06" fill="white"/>
</g>
</g>
<g opacity="0.5">
<mask id="mask3_73_629" style="mask-type:luminance" maskUnits="userSpaceOnUse" x="3" y="73" width="39" height="29">
<path d="M41.7024 73.8318H3.55823V101.351H41.7024V73.8318Z" fill="white"/>
</mask>
<g mask="url(#mask3_73_629)">
<path d="M16.4147 77.1795L4.14277 95.4008C2.65523 98.0039 4.14277 101.351 7.11785 101.351H37.9839C38.6746 101.351 39.3518 101.159 39.9394 100.796C40.5271 100.433 41.0019 99.9139 41.3107 99.2961C41.6195 98.6782 41.75 97.9866 41.6876 97.2987C41.6252 96.6108 41.3724 95.9539 40.9574 95.4017L28.6855 77.1804C26.0823 72.7193 19.3886 72.7193 16.4135 77.1804" fill="white"/>
</g>
</g>
<g opacity="0.5">
<mask id="mask4_73_629" style="mask-type:luminance" maskUnits="userSpaceOnUse" x="48" y="19" width="113" height="16">
<path d="M160.332 19.537H48.7677V34.4122H160.332V19.537Z" fill="white"/>
</mask>
<g mask="url(#mask4_73_629)">
<path d="M160.333 19.537H48.7686V34.4122H160.333V19.537Z" fill="white"/>
</g>
</g>
<g opacity="0.5">
<mask id="mask5_73_629" style="mask-type:luminance" maskUnits="userSpaceOnUse" x="48" y="131" width="113" height="15">
<path d="M160.332 131.102H48.7677V145.977H160.332V131.102Z" fill="white"/>
</mask>
<g mask="url(#mask5_73_629)">
<path d="M160.333 131.102H48.7686V145.977H160.333V131.102Z" fill="white"/>
</g>
</g>
<path d="M182.645 142.258C182.645 148.581 177.811 153.415 171.489 153.415H164.051V127.385C164.04 123.443 162.469 119.666 159.682 116.879C156.895 114.092 153.118 112.521 149.176 112.509H59.924C55.9827 112.521 52.2063 114.092 49.4196 116.879C46.6329 119.667 45.0623 123.443 45.0508 127.385V153.417H37.6118C31.2897 153.417 26.4554 148.582 26.4554 142.26V105.07H37.985C40.5881 105.07 43.1913 103.582 44.6788 100.979C45.7944 98.3762 45.7944 95.7731 44.3068 93.1699L32.0349 74.9486C29.8025 71.9726 26.4554 70.113 22.7367 70.113C19.018 70.113 15.671 71.9726 13.4398 74.9477L1.16788 93.169C-0.319657 95.3995 -0.319657 98.3753 0.795919 100.978C1.91149 103.582 4.51461 105.069 7.48969 105.069H19.0193V142.258C18.9952 144.707 19.4596 147.136 20.3855 149.403C21.3114 151.67 22.6801 153.729 24.4116 155.46C26.143 157.192 28.2024 158.561 30.4693 159.487C32.7361 160.412 35.1649 160.877 37.6134 160.853H45.0508V179.447C45.0624 183.389 46.6333 187.165 49.4204 189.953C52.2075 192.74 55.9843 194.311 59.9258 194.322H149.178C153.12 194.311 156.897 192.74 159.684 189.953C162.471 187.165 164.042 183.389 164.053 179.447V160.853H171.491C173.939 160.877 176.368 160.412 178.635 159.487C180.902 158.561 182.961 157.192 184.693 155.46C186.424 153.729 187.793 151.67 188.719 149.403C189.645 147.136 190.109 144.707 190.085 142.258V135.193H182.645V142.258ZM19.761 79.41C20.0867 78.9267 20.5318 78.5359 21.0531 78.2752C21.5743 78.0146 22.1541 77.8931 22.7361 77.9225C23.8517 77.9225 24.9666 78.6661 25.7112 79.41L37.9831 97.6313H7.48969L19.761 79.41ZM156.614 179.447C156.608 181.418 155.823 183.306 154.429 184.7C153.035 186.094 151.147 186.879 149.176 186.885H59.9236C57.9528 186.879 56.0643 186.094 54.6707 184.7C53.2771 183.306 52.4917 181.418 52.4859 179.447V127.385C52.4917 125.414 53.2771 123.525 54.6707 122.132C56.0643 120.738 57.9528 119.953 59.9236 119.947H149.176C151.147 119.953 153.035 120.738 154.429 122.132C155.823 123.525 156.608 125.414 156.614 127.385V179.447Z" fill="white"/>
<path d="M145.457 53.0064H119.426V60.4442H145.457V53.0064Z" fill="white"/>
<path d="M97.1128 41.8499H63.6437V49.2877H97.1128V41.8499Z" fill="white"/>
<path d="M85.9565 56.7254H63.6437V64.1632H85.9565V56.7254Z" fill="white"/>
<path d="M145.457 164.571H119.426V172.009H145.457V164.571Z" fill="white"/>
<path d="M97.1128 153.415H63.6437V160.853H97.1128V153.415Z" fill="white"/>
<path d="M85.9565 168.29H63.6437V175.728H85.9565V168.29Z" fill="white"/>
<path d="M208.305 97.2606C207.189 94.6575 204.586 93.1699 201.611 93.1699H190.082V53.0064C190.106 50.5578 189.641 48.1291 188.715 45.8622C187.789 43.5953 186.421 41.5359 184.689 39.8045C182.958 38.073 180.898 36.7043 178.632 35.7784C176.365 34.8525 173.936 34.388 171.487 34.4121H164.051V15.8179C164.039 11.8763 162.468 8.0995 159.681 5.31237C156.894 2.52524 153.117 0.954312 149.176 0.942709L59.9235 0.942709C55.9822 0.95456 52.2056 2.5256 49.4187 5.3127C46.6318 8.09981 45.061 11.8765 45.0494 15.8179V34.4121H37.6114C35.1629 34.388 32.7342 34.8525 30.4674 35.7785C28.2006 36.7044 26.1412 38.0731 24.4098 39.8046C22.6784 41.536 21.3097 43.5954 20.3838 45.8623C19.4579 48.1291 18.9935 50.5579 19.0176 53.0064V62.3033H26.4553V53.0064C26.4553 46.6842 31.2899 41.8499 37.6117 41.8499H45.0494V67.8819C45.061 71.8235 46.6319 75.6003 49.419 78.3874C52.2061 81.1746 55.9829 82.7455 59.9245 82.7571H149.177C153.118 82.7455 156.895 81.1746 159.682 78.3874C162.469 75.6003 164.04 71.8235 164.052 67.8819V41.8499H171.49C177.812 41.8499 182.646 46.6845 182.646 53.0064V93.1699H171.116C168.513 93.1699 165.91 94.6575 164.423 97.2606C163.307 99.8638 163.307 102.467 164.795 105.07L177.067 123.291C179.297 126.266 182.645 128.126 186.363 128.126C190.082 128.126 193.429 126.266 195.66 123.291L207.932 105.07C209.42 102.467 209.42 99.4918 208.304 97.2606M156.615 67.8819C156.609 69.8527 155.823 71.7412 154.43 73.1349C153.036 74.5285 151.148 75.3139 149.177 75.3196H59.9245C57.9536 75.3139 56.0652 74.5285 54.6716 73.1349C53.278 71.7412 52.4925 69.8527 52.4868 67.8819V15.8179C52.4925 13.8471 53.278 11.9585 54.6716 10.5649C56.0652 9.17132 57.9536 8.38587 59.9245 8.38015H149.177C151.148 8.38587 153.036 9.17132 154.43 10.5649C155.823 11.9585 156.609 13.8471 156.615 15.8179V67.8819ZM189.339 119.202C188.989 119.717 188.517 120.139 187.966 120.431C187.416 120.723 186.802 120.875 186.178 120.875C185.555 120.875 184.941 120.723 184.39 120.431C183.839 120.139 183.367 119.717 183.017 119.202L170.745 100.98H201.611L189.339 119.202Z" fill="white"/>
</g>
</g>
</svg>
